<svg xmlns="http://www.w3.org/2000/svg" width="50.0mm" height="34.64101615137754mm"><line stroke="#00FF00" stroke-opacity="1" stroke-width="1" x1="10.000000000000002mm" y1="0mm" x2="50.0mm" y2="0mm"/><line stroke="#00FF00" stroke-opacity="1" stroke-width="1" x1="10.000000000000002mm" y1="34.64101615137754mm" x2="50.0mm" y2="34.64101615137754mm"/><line stroke="#00FF00" stroke-opacity="1" stroke-width="1" x1="10.000000000000002mm" y1="0mm" x2="0mm" y2="17.32050807568877mm"/><line stroke="#00FF00" stroke-opacity="1" stroke-width="1" x1="0mm" y1="17.32050807568877mm" x2="10.000000000000002mm" y2="34.64101615137754mm"/><line stroke="#00FF00" stroke-opacity="1" stroke-width="1" x1="50.0mm" y1="0mm" x2="40mm" y2="17.32050807568877mm"/><line stroke="#00FF00" stroke-opacity="1" stroke-width="1" x1="40mm" y1="17.32050807568877mm" x2="50.0mm" y2="34.64101615137754mm"/><line stroke="#FF0000" stroke-opacity="1" stroke-width="0.2" x1="21.25mm" y1="17.32050807568877mm" x2="23.75mm" y2="17.32050807568877mm"/><line stroke="#FF0000" stroke-opacity="1" stroke-width="0.2" x1="26.25mm" y1="17.32050807568877mm" x2="28.75mm" y2="17.32050807568877mm"/><line stroke="#FF0000" stroke-opacity="1" stroke-width="0.2" x1="31.25mm" y1="17.32050807568877mm" x2="33.75mm" y2="17.32050807568877mm"/><line stroke="#FF0000" stroke-opacity="1" stroke-width="0.2" x1="36.25mm" y1="17.32050807568877mm" x2="38.75mm" y2="17.32050807568877mm"/><line stroke="#FF0000" stroke-opacity="1" stroke-width="0.2" x1="29.375mm" y1="1.0825317547305482mm" x2="28.125mm" y2="3.2475952641916446mm"/><line stroke="#FF0000" stroke-opacity="1" stroke-width="0.2" x1="26.875mm" y1="5.4126587736527405mm" x2="25.625mm" y2="7.577722283113837mm"/><line stroke="#FF0000" stroke-opacity="1" stroke-width="0.2" x1="24.375mm" y1="9.742785792574933mm" x2="23.125mm" y2="11.90784930203603mm"/><line stroke="#FF0000" stroke-opacity="1" stroke-width="0.2" x1="21.875mm" y1="14.072912811497126mm" x2="20.625mm" y2="16.23797632095822mm"/><line stroke="#FF0000" stroke-opacity="1" stroke-width="0.2" x1="1.25mm" y1="17.32050807568877mm" x2="3.75mm" y2="17.32050807568877mm"/><line stroke="#FF0000" stroke-opacity="1" stroke-width="0.2" x1="6.25mm" y1="17.32050807568877mm" x2="8.75mm" y2="17.32050807568877mm"/><line stroke="#FF0000" stroke-opacity="1" stroke-width="0.2" x1="11.25mm" y1="17.32050807568877mm" x2="13.75mm" y2="17.32050807568877mm"/><line stroke="#FF0000" stroke-opacity="1" stroke-width="0.2" x1="16.25mm" y1="17.32050807568877mm" x2="18.75mm" y2="17.32050807568877mm"/><line stroke="#FF0000" stroke-opacity="1" stroke-width="0.2" x1="20.625mm" y1="18.40303983041932mm" x2="21.875mm" y2="20.568103339880416mm"/><line stroke="#FF0000" stroke-opacity="1" stroke-width="0.2" x1="23.125mm" y1="22.73316684934151mm" x2="24.375mm" y2="24.898230358802607mm"/><line stroke="#FF0000" stroke-opacity="1" stroke-width="0.2" x1="25.625mm" y1="27.063293868263703mm" x2="26.875mm" y2="29.228357377724798mm"/><line stroke="#FF0000" stroke-opacity="1" stroke-width="0.2" x1="28.125mm" y1="31.393420887185894mm" x2="29.375mm" y2="33.55848439664699mm"/></svg>